{
.appVersion = "1057";
copyright = "Copyright 2017 Google Inc. All Rights Reserved.";
customParameters = (
{
name = glyphOrder;
value = (
.notdef,
NULL,
CR,
space,
uni00A0,
uniA930,
uniA931,
uniA932,
uniA933,
uniA934,
uniA935,
uniA936,
uniA937,
uniA938,
uniA939,
uniA93A,
uniA93B,
uniA93C,
uniA93D,
uniA93E,
uniA93F,
uniA940,
uniA941,
uniA942,
uniA943,
uniA944,
uniA945,
uniA946,
uniA947,
uniA948,
uniA949,
uniA94A,
uniA94B,
uniA94C,
uniA94D,
uniA94E,
uniA94F,
uniA950,
uniA951,
uniA952,
uniA953,
uniA95F,
uni200B,
uni200C,
uni200D,
uni25CC
);
},
{
name = description;
value = "Designed by Monotype design team.";
},
{
name = license;
value = "This Font Software is licensed under the SIL Open Font License, Version 1.1. This Font Software is distributed on an \"AS IS\" BASIS, WITHOUT WARRANTIES OR CONDITIONS OF ANY KIND, either express or implied. See the SIL Open Font License for the specific language, permissions and limitations governing your use of this Font Software.";
},
{
name = licenseURL;
value = "http://scripts.sil.org/OFL";
},
{
name = vendorID;
value = GOOG;
},
{
name = unicodeRanges;
value = (
0,
1,
31,
45,
117
);
},
{
name = trademark;
value = "Noto is a trademark of Google Inc.";
},
{
name = "Has WWS Names";
value = 1;
},
{
name = versionString;
value = "Version 2.000";
},
{
name = fsType;
value = (
);
},
{
name = codePageRanges;
value = (
"1252"
);
}
);
date = "2017-05-03 14:33:57 +0000";
designer = "Monotype Design Team";
designerURL = "http://www.monotype.com/studio";
disablesAutomaticAlignment = 1;
disablesNiceNames = 1;
familyName = "Noto Sans Rejang";
fontMaster = (
{
alignmentZones = (
"{714, 11}",
"{536, 10}",
"{-10, 10}",
"{-240, 0}"
);
ascender = 760;
capHeight = 714;
customParameters = (
{
name = typoAscender;
value = 1069;
},
{
name = typoDescender;
value = -293;
},
{
name = typoLineGap;
value = 0;
},
{
name = winAscent;
value = 1069;
},
{
name = winDescent;
value = 293;
},
{
name = hheaAscender;
value = 1069;
},
{
name = hheaDescender;

glyphs = (
{
glyphname = .notdef;
lastChange = "2017-09-07 13:25:16 +0000";
layers = (
{
layerId = UUID0;
paths = (
{
closed = 1;
nodes = (
"505 0 LINE",
"505 714 LINE",
"94 714 LINE",
"94 0 LINE"
);
},
{
closed = 1;
nodes = (
"145 663 LINE",
"454 663 LINE",
"454 51 LINE",
"145 51 LINE"
);
}
);
width = 600;
}
);
},
{
glyphname = uniA930;
lastChange = "2017-09-07 13:25:16 +0000";
layers = (
{
layerId = UUID0;
paths = (
{
closed = 1;
nodes = (
"64 0 LINE",
"172 264 LINE SMOOTH",
"180 283 OFFCURVE",
"193 323 OFFCURVE",
"203 358 CURVE",
"207 358 LINE",
"216 325 OFFCURVE",
"225 295 OFFCURVE",
"234 274 CURVE SMOOTH",
"270 188 LINE",
"348 188 LINE",
"242 440 LINE",
"260 485 LINE SMOOTH",
"267 503 OFFCURVE",
"282 542 OFFCURVE",
"291 577 CURVE",
"295 577 LINE",
"303 542 OFFCURVE",
"320 504 OFFCURVE",
"327 485 CURVE SMOOTH",
"356 407 LINE",
"437 407 LINE",
"298 734 LINE",
"288 734 LINE",
"-20 0 LINE"
);
}
);
width = 477;
}
);
unicode = A930;
},
{
glyphname = uniA931;
lastChange = "2017-09-07 13:25:16 +0000";
layers = (
{
layerId = UUID0;
paths = (
{
closed = 1;
nodes = (
"63 0 LINE",
"260 485 LINE SMOOTH",
"267 503 OFFCURVE",
"282 542 OFFCURVE",
"291 577 CURVE",
"295 577 LINE",
"304 542 OFFCURVE",
"320 504 OFFCURVE",
"327 485 CURVE SMOOTH",
"356 407 LINE",
"437 407 LINE",
"298 734 LINE",
"288 734 LINE",
"-21 0 LINE"
);
}
);
width = 458;
}
);
unicode = A931;
},
{
glyphname = uniA932;
lastChange = "2017-09-07 13:25:16 +0000";
layers = (
{
layerId = UUID0;
paths = (
{
closed = 1;
nodes = (
"547 -20 LINE",
"855 715 LINE",
"771 715 LINE",
"575 228 LINE SMOOTH",
"569 213 OFFCURVE",
"550 161 OFFCURVE",
"545 138 CURVE",
"541 138 LINE",
"531 172 OFFCURVE",
"517 209 OFFCURVE",
"509 228 CURVE SMOOTH",
"458 358 LINE",
"606 715 LINE",
"527 715 LINE",
"417 452 LINE",
"298 734 LINE",
"288 734 LINE",
"-21 1 LINE",
"63 1 LINE",
"260 485 LINE SMOOTH",
"267 503 OFFCURVE",
"282 542 OFFCURVE",
"291 577 CURVE",
"295 577 LINE",
"304 542 OFFCURVE",
"320 504 OFFCURVE",
"327 485 CURVE SMOOTH",
"377 356 LINE",
"228 1 LINE",
"307 1 LINE",
"417 260 LINE",
"537 -20 LINE"
);
}
);
width = 830;
}
);
unicode = A932;
},
{
glyphname = uniA933;
lastChange = "2017-09-07 13:25:16 +0000";
layers = (
{
layerId = UUID0;
paths = (
{
closed = 1;
nodes = (
"63 0 LINE",
"172 264 LINE SMOOTH",
"180 283 OFFCURVE",
"193 323 OFFCURVE",
"203 358 CURVE",
"207 358 LINE",
"217 323 OFFCURVE",
"230 288 OFFCURVE",
"240 270 CURVE SMOOTH",
"302 155 LINE",
"438 405 LINE",
"403 488 OFFCURVE",
"332 651 OFFCURVE",
"298 734 CURVE",
"288 734 LINE",
"-21 0 LINE"
);
},
{
closed = 1;
nodes = (
"242 440 LINE",
"260 485 LINE SMOOTH",
"267 503 OFFCURVE",
"282 542 OFFCURVE",
"291 577 CURVE",
"295 577 LINE",
"303 542 OFFCURVE",
"320 504 OFFCURVE",
"327 485 CURVE SMOOTH",
"357 405 LINE",
"302 297 LINE"
);
}
);
width = 477;
}
);
unicode = A933;
},
{
glyphname = uniA934;
lastChange = "2017-09-07 13:25:16 +0000";
layers = (
{
layerId = UUID0;
paths = (
{
closed = 1;
nodes = (
"64 0 LINE",
"166 250 LINE SMOOTH",
"174 269 OFFCURVE",
"188 309 OFFCURVE",
"197 344 CURVE",
"201 344 LINE",
"210 311 OFFCURVE",
"227 277 OFFCURVE",
"236 259 CURVE SMOOTH",
"283 165 LINE",
"317 237 LINE",
"357 159 LINE",
"437 159 LINE",
"315 380 LINE",
"283 314 LINE",
"236 426 LINE",
"260 485 LINE SMOOTH",
"267 503 OFFCURVE",
"282 542 OFFCURVE",
"291 577 CURVE",
"295 577 LINE",
"304 542 OFFCURVE",
"320 504 OFFCURVE",
"327 485 CURVE SMOOTH",
"356 407 LINE",
"437 407 LINE",
"298 734 LINE",
"288 734 LINE",
"-20 0 LINE"
);
}
);
width = 477;
}
);
unicode = A934;
},
{
glyphname = uniA935;
lastChange = "2017-09-07 13:25:16 +0000";
layers = (
{
layerId = UUID0;
paths = (
{
closed = 1;
nodes = (
"339 -20 LINE",
"603 464 LINE SMOOTH",
"612 481 OFFCURVE",
"626 509 OFFCURVE",
"634 536 CURVE",
"638 536 LINE",
"638 502 OFFCURVE",
"640 463 OFFCURVE",
"642 443 CURVE SMOOTH",
"684 0 LINE",
"764 0 LINE",
"683 734 LINE",
"669 734 LINE",
"419 258 LINE SMOOTH",
"404 230 OFFCURVE",
"390 194 OFFCURVE",
"380 165 CURVE",
"376 165 LINE",
"376 195 OFFCURVE",
"374 230 OFFCURVE",
"370 258 CURVE SMOOTH",
"306 734 LINE",
"296 734 LINE",
"-20 0 LINE",
"64 0 LINE",
"246 438 LINE SMOOTH",
"254 457 OFFCURVE",
"262 484 OFFCURVE",
"267 511 CURVE",
"271 511 LINE",
"271 477 OFFCURVE",
"274 437 OFFCURVE",
"276 418 CURVE SMOOTH",
"329 -20 LINE"
);
}
);
width = 876;
}
);
unicode = A935;
},
{
glyphname = uniA936;
lastChange = "2017-09-07 13:25:16 +0000";
layers = (
{
layerId = UUID0;
paths = (
{
closed = 1;
nodes = (
"173 -20 LINE",
"483 715 LINE",
"399 715 LINE",
"201 231 LINE SMOOTH",
"193 212 OFFCURVE",
"179 172 OFFCURVE",
"170 138 CURVE",
"166 138 LINE",
"156 172 OFFCURVE",
"142 211 OFFCURVE",
"134 231 CURVE SMOOTH",
"104 308 LINE",
"24 308 LINE",
"163 -20 LINE"
);
}
);
width = 458;
}
);
unicode = A936;
},
{
glyphname = uniA937;
lastChange = "2017-09-07 13:25:16 +0000";
layers = (
{
layerId = UUID0;
paths = (
{
closed = 1;
nodes = (
"58 0 LINE",
"357 715 LINE",
"279 715 LINE",
"-20 0 LINE"
);
}
);
width = 334;
}
);
unicode = A937;
},
{
glyphname = uniA938;
lastChange = "2017-09-07 13:25:16 +0000";
layers = (
{
layerId = UUID0;
paths = (
{
closed = 1;
nodes = (
"172 -20 LINE",
"274 220 LINE SMOOTH",
"283 241 OFFCURVE",
"293 274 OFFCURVE",
"300 304 CURVE",
"304 304 LINE",
"312 275 OFFCURVE",
"321 243 OFFCURVE",
"329 224 CURVE SMOOTH",
"394 71 LINE",
"404 71 LINE",
"542 398 LINE",
"462 398 LINE",
"432 321 LINE SMOOTH",
"424 301 OFFCURVE",
"409 262 OFFCURVE",
"400 228 CURVE",
"396 228 LINE",
"387 262 OFFCURVE",
"372 302 OFFCURVE",
"365 321 CURVE SMOOTH",
"341 382 LINE",
"482 715 LINE",
"398 715 LINE",
"326 537 LINE SMOOTH",
"318 517 OFFCURVE",
"308 482 OFFCURVE",
"303 459 CURVE",
"299 459 LINE",
"294 481 OFFCURVE",
"285 515 OFFCURVE",
"279 531 CURVE SMOOTH",
"206 715 LINE",
"123 715 LINE",
"261 383 LINE",
"201 231 LINE SMOOTH",
"188 199 OFFCURVE",
"175 160 OFFCURVE",
"170 138 CURVE",
"166 138 LINE",
"156 172 OFFCURVE",
"142 211 OFFCURVE",
"134 231 CURVE SMOOTH",
"104 308 LINE",
"24 308 LINE",
"162 -20 LINE"
);
}
);
width = 554;
}
);
unicode = A938;
},
{
glyphname = uniA939;
lastChange = "2017-09-07 13:25:16 +0000";
layers = (
{
layerId = UUID0;
paths = (
{
closed = 1;
nodes = (
"347 231 LINE",
"251 459 LINE",
"294 574 LINE",
"298 574 LINE",
"307 539 OFFCURVE",
"320 504 OFFCURVE",
"328 485 CURVE SMOOTH",
"362 407 LINE",
"438 407 LINE",
"299 734 LINE",
"289 734 LINE",
"-21 0 LINE",
"63 0 LINE",
"92 71 LINE SMOOTH",
"100 90 OFFCURVE",
"116 130 OFFCURVE",
"125 164 CURVE",
"129 164 LINE",
"136 131 OFFCURVE",
"152 95 OFFCURVE",
"162 77 CURVE SMOOTH",
"214 -13 LINE"
);
},
{
closed = 1;
nodes = (
"164 246 LINE",
"212 373 LINE",
"216 373 LINE",
"223 346 OFFCURVE",
"231 321 OFFCURVE",
"239 301 CURVE SMOOTH",
"268 231 LINE",
"217 123 LINE"
);
}
);
width = 477;
}
);
unicode = A939;
},
{
glyphname = uniA93A;
lastChange = "2017-09-07 13:25:16 +0000";
layers = (
{
layerId = UUID0;
paths = (
{
closed = 1;
nodes = (
"64 0 LINE",
"159 234 LINE SMOOTH",
"167 253 OFFCURVE",
"180 293 OFFCURVE",
"190 328 CURVE",
"194 328 LINE",
"203 293 OFFCURVE",
"216 259 OFFCURVE",
"227 240 CURVE SMOOTH",
"294 122 LINE",
"455 485 LINE SMOOTH",
"463 503 OFFCURVE",
"477 542 OFFCURVE",
"486 577 CURVE",
"490 577 LINE",
"499 545 OFFCURVE",
"509 514 OFFCURVE",
"517 494 CURVE SMOOTH",
"552 407 LINE",
"632 407 LINE",
"493 734 LINE",
"483 734 LINE",
"392 513 LINE",
"298 734 LINE",
"288 734 LINE",
"-20 0 LINE"
);
},
{
closed = 1;
nodes = (
"229 410 LINE",
"260 485 LINE SMOOTH",
"267 503 OFFCURVE",
"282 542 OFFCURVE",
"291 577 CURVE",
"295 577 LINE",
"304 542 OFFCURVE",
"319 504 OFFCURVE",
"327 485 CURVE SMOOTH",
"352 422 LINE",
"288 268 LINE"
);
}
);
width = 652;
}
);
unicode = A93A;
},
{
glyphname = uniA93B;
lastChange = "2017-09-07 13:25:16 +0000";
layers = (
{
layerId = UUID0;
paths = (
{
closed = 1;
nodes = (
"62 0 LINE",
"260 485 LINE SMOOTH",
"267 503 OFFCURVE",
"282 542 OFFCURVE",
"291 577 CURVE",
"295 577 LINE",
"304 542 OFFCURVE",
"319 504 OFFCURVE",
"327 485 CURVE SMOOTH",
"392 330 LINE",
"402 330 LINE",
"469 485 LINE SMOOTH",
"477 503 OFFCURVE",
"491 542 OFFCURVE",
"499 577 CURVE",
"503 577 LINE",
"513 542 OFFCURVE",
"527 504 OFFCURVE",
"535 485 CURVE SMOOTH",
"599 330 LINE",
"609 330 LINE",
"643 412 OFFCURVE",
"736 632 OFFCURVE",
"770 715 CURVE",
"690 715 LINE",
"638 581 LINE SMOOTH",
"630 561 OFFCURVE",
"616 522 OFFCURVE",
"606 488 CURVE",
"602 488 LINE",
"592 522 OFFCURVE",
"578 562 OFFCURVE",
"570 581 CURVE SMOOTH",
"507 734 LINE",
"497 734 LINE",
"422 556 LINE SMOOTH",
"415 538 OFFCURVE",
"405 512 OFFCURVE",
"399 488 CURVE",
"395 488 LINE",
"388 512 OFFCURVE",
"379 540 OFFCURVE",
"372 556 CURVE SMOOTH",
"298 734 LINE",
"288 734 LINE",
"-22 0 LINE"
);
}
);
width = 746;
}
);
unicode = A93B;
},
{
glyphname = uniA93C;
lastChange = "2017-09-07 13:25:16 +0000";
layers = (
{
layerId = UUID0;
paths = (
{
closed = 1;
nodes = (
"61 0 LINE",
"260 485 LINE SMOOTH",
"267 503 OFFCURVE",
"282 542 OFFCURVE",
"291 577 CURVE",
"295 577 LINE",
"304 542 OFFCURVE",
"319 504 OFFCURVE",
"327 485 CURVE SMOOTH",
"363 402 LINE",
"192 0 LINE",
"276 0 LINE",
"475 485 LINE SMOOTH",
"482 503 OFFCURVE",
"497 542 OFFCURVE",
"506 577 CURVE",
"510 577 LINE",
"519 542 OFFCURVE",
"532 504 OFFCURVE",
"540 485 CURVE SMOOTH",
"571 407 LINE",
"652 407 LINE",
"513 734 LINE",
"504 734 LINE",
"425 551 LINE SMOOTH",
"417 532 OFFCURVE",
"408 504 OFFCURVE",
"402 479 CURVE",
"398 479 LINE",
"393 504 OFFCURVE",
"383 532 OFFCURVE",
"375 551 CURVE SMOOTH",
"298 734 LINE",
"288 734 LINE",
"-23 0 LINE"
);
}
);
width = 651;
}
);
unicode = A93C;
},
{
glyphname = uniA93D;
lastChange = "2017-09-07 13:25:16 +0000";
layers = (
{
layerId = UUID0;
paths = (
{
closed = 1;
nodes = (
"265 -20 LINE",
"475 485 LINE SMOOTH",
"482 503 OFFCURVE",
"497 542 OFFCURVE",
"506 577 CURVE",
"510 577 LINE",
"519 542 OFFCURVE",
"535 504 OFFCURVE",
"542 485 CURVE SMOOTH",
"571 407 LINE",
"652 407 LINE",
"514 734 LINE",
"504 734 LINE",
"425 551 LINE SMOOTH",
"417 532 OFFCURVE",
"408 504 OFFCURVE",
"402 479 CURVE",
"398 479 LINE",
"393 504 OFFCURVE",
"383 532 OFFCURVE",
"375 551 CURVE SMOOTH",
"298 734 LINE",
"288 734 LINE",
"-20 0 LINE",
"64 0 LINE",
"127 155 LINE SMOOTH",
"135 175 OFFCURVE",
"143 203 OFFCURVE",
"150 225 CURVE",
"154 225 LINE",
"159 206 OFFCURVE",
"169 175 OFFCURVE",
"177 157 CURVE SMOOTH",
"255 -20 LINE"
);
},
{
closed = 1;
nodes = (
"247 173 OFFCURVE",
"237 200 OFFCURVE",
"227 223 CURVE SMOOTH",
"189 310 LINE",
"260 485 LINE SMOOTH",
"267 503 OFFCURVE",
"282 542 OFFCURVE",
"291 577 CURVE",
"295 577 LINE",
"303 542 OFFCURVE",
"319 504 OFFCURVE",
"327 485 CURVE SMOOTH",
"363 402 LINE",
"294 231 LINE SMOOTH",
"286 212 OFFCURVE",
"268 172 OFFCURVE",
"260 138 CURVE",
"255 138 LINE"
);
}
);
width = 651;
}
);
unicode = A93D;
},
{
glyphname = uniA93E;
lastChange = "2017-09-07 13:25:16 +0000";
layers = (
{
layerId = UUID0;
paths = (
{
closed = 1;
nodes = (
"423 -20 LINE",
"734 715 LINE",
"651 715 LINE",
"469 260 LINE SMOOTH",
"457 231 OFFCURVE",
"447 202 OFFCURVE",
"440 173 CURVE",
"436 173 LINE",
"433 203 OFFCURVE",
"428 238 OFFCURVE",
"421 266 CURVE SMOOTH",
"303 734 LINE",
"293 734 LINE",
"-22 0 LINE",
"62 0 LINE",
"258 468 LINE SMOOTH",
"266 486 OFFCURVE",
"276 513 OFFCURVE",
"282 541 CURVE",
"286 541 LINE",
"290 506 OFFCURVE",
"295 467 OFFCURVE",
"300 448 CURVE SMOOTH",
"413 -20 LINE"
);
}
);
width = 709;
}
);
unicode = A93E;
},
{
glyphname = uniA93F;
lastChange = "2017-09-07 13:25:16 +0000";
layers = (
{
layerId = UUID0;
paths = (
{
closed = 1;
nodes = (
"208 -20 LINE",
"292 175 LINE SMOOTH",
"304 204 OFFCURVE",
"314 235 OFFCURVE",
"321 263 CURVE",
"325 263 LINE",
"327 232 OFFCURVE",
"331 200 OFFCURVE",
"337 170 CURVE SMOOTH",
"378 -20 LINE",
"388 -20 LINE",
"697 714 LINE",
"613 714 LINE",
"433 265 LINE SMOOTH",
"425 246 OFFCURVE",
"414 219 OFFCURVE",
"408 191 CURVE",
"404 191 LINE",
"401 227 OFFCURVE",
"399 251 OFFCURVE",
"395 270 CURVE SMOOTH",
"355 464 LINE",
"345 464 LINE",
"280 306 LINE SMOOTH",
"273 288 OFFCURVE",
"249 232 OFFCURVE",
"241 204 CURVE",
"237 204 LINE",
"237 239 OFFCURVE",
"234 278 OFFCURVE",
"232 297 CURVE SMOOTH",
"193 714 LINE",
"113 714 LINE",
"194 -20 LINE"
);
}
);
width = 674;
}
);
unicode = A93F;
},
{
glyphname = uniA940;
lastChange = "2017-09-07 13:25:16 +0000";
layers = (
{
layerId = UUID0;
paths = (
{
closed = 1;
nodes = (
"61 0 LINE",
"260 485 LINE SMOOTH",
"267 503 OFFCURVE",
"282 542 OFFCURVE",
"291 577 CURVE",
"295 577 LINE",
"304 542 OFFCURVE",
"319 504 OFFCURVE",
"327 485 CURVE SMOOTH",
"363 402 LINE",
"192 0 LINE",
"276 0 LINE",
"576 714 LINE",
"494 714 LINE",
"425 551 LINE SMOOTH",
"417 532 OFFCURVE",
"408 504 OFFCURVE",
"402 479 CURVE",
"398 479 LINE",
"393 504 OFFCURVE",
"383 532 OFFCURVE",
"375 551 CURVE SMOOTH",
"301 734 LINE",
"288 734 LINE",
"-23 0 LINE"
);
}
);
width = 553;
}
);
unicode = A940;
},
{
glyphname = uniA941;
lastChange = "2017-09-07 13:25:16 +0000";
layers = (
{
layerId = UUID0;
paths = (
{
closed = 1;
nodes = (
"173 -20 LINE",
"378 485 LINE SMOOTH",
"385 503 OFFCURVE",
"400 542 OFFCURVE",
"409 577 CURVE",
"413 577 LINE",
"423 542 OFFCURVE",
"438 504 OFFCURVE",
"445 485 CURVE SMOOTH",
"475 407 LINE",
"555 407 LINE",
"417 734 LINE",
"407 734 LINE",
"201 231 LINE SMOOTH",
"193 212 OFFCURVE",
"179 172 OFFCURVE",
"170 138 CURVE",
"166 138 LINE",
"156 172 OFFCURVE",
"142 211 OFFCURVE",
"134 231 CURVE SMOOTH",
"104 308 LINE",
"24 308 LINE",
"163 -20 LINE"
);
}
);
width = 576;
}
);
unicode = A941;
},
{
glyphname = uniA942;
lastChange = "2017-09-07 13:25:16 +0000";
layers = (
{
layerId = UUID0;
paths = (
{
closed = 1;
nodes = (
"293 -20 LINE",
"602 715 LINE",
"519 715 LINE",
"322 231 LINE SMOOTH",
"314 212 OFFCURVE",
"300 172 OFFCURVE",
"291 138 CURVE",
"287 138 LINE",
"277 172 OFFCURVE",
"262 211 OFFCURVE",
"254 231 CURVE SMOOTH",
"206 356 LINE",
"357 715 LINE",
"279 715 LINE",
"-20 0 LINE",
"58 0 LINE",
"165 258 LINE",
"283 -20 LINE"
);
}
);
width = 578;
}
);
unicode = A942;
},
{
glyphname = uniA943;
lastChange = "2017-09-07 13:25:16 +0000";
layers = (
{
layerId = UUID0;
paths = (
{
closed = 1;
nodes = (
"62 0 LINE",
"267 485 LINE SMOOTH",
"275 503 OFFCURVE",
"292 542 OFFCURVE",
"300 577 CURVE",
"304 577 LINE",
"314 542 OFFCURVE",
"331 504 OFFCURVE",
"339 485 CURVE SMOOTH",
"548 0 LINE",
"634 0 LINE",
"308 734 LINE",
"298 734 LINE",
"-22 0 LINE"
);
},
{
closed = 1;
nodes = (
"217 0 LINE",
"277 152 LINE SMOOTH",
"286 174 OFFCURVE",
"294 204 OFFCURVE",
"300 229 CURVE",
"304 229 LINE",
"313 198 OFFCURVE",
"325 161 OFFCURVE",
"333 140 CURVE SMOOTH",
"387 0 LINE",
"467 0 LINE",
"308 374 LINE",
"298 374 LINE",
"139 0 LINE"
);
}
);
width = 608;
}
);
unicode = A943;
},
{
glyphname = uniA944;
lastChange = "2017-09-07 13:25:16 +0000";
layers = (
{
layerId = UUID0;
paths = (
{
closed = 1;
nodes = (
"339 -20 LINE",
"494 271 LINE",
"529 -20 LINE",
"539 -20 LINE",
"938 714 LINE",
"859 714 LINE",
"613 253 LINE SMOOTH",
"598 225 OFFCURVE",
"586 194 OFFCURVE",
"577 165 CURVE",
"573 165 LINE",
"573 195 OFFCURVE",
"570 230 OFFCURVE",
"567 258 CURVE SMOOTH",
"552 379 LINE",
"732 714 LINE",
"659 714 LINE",
"539 487 LINE",
"511 714 LINE",
"442 714 LINE",
"482 379 LINE",
"413 248 LINE SMOOTH",
"398 219 OFFCURVE",
"386 189 OFFCURVE",
"377 160 CURVE",
"373 160 LINE",
"373 189 OFFCURVE",
"371 225 OFFCURVE",
"367 253 CURVE SMOOTH",
"306 734 LINE",
"296 734 LINE",
"-20 0 LINE",
"64 0 LINE",
"246 438 LINE SMOOTH",
"254 457 OFFCURVE",
"262 484 OFFCURVE",
"267 511 CURVE",
"271 511 LINE",
"271 477 OFFCURVE",
"274 437 OFFCURVE",
"276 418 CURVE SMOOTH",
"329 -20 LINE"
);
}
);
width = 907;
}
);
unicode = A944;
},
{
glyphname = uniA945;
lastChange = "2017-09-07 13:25:16 +0000";
layers = (
{
layerId = UUID0;
paths = (
{
closed = 1;
nodes = (
"268 -20 LINE",
"475 485 LINE SMOOTH",
"482 503 OFFCURVE",
"497 542 OFFCURVE",
"506 577 CURVE",
"510 577 LINE",
"519 542 OFFCURVE",
"535 504 OFFCURVE",
"542 485 CURVE SMOOTH",
"571 407 LINE",
"649 407 LINE",
"683 489 OFFCURVE",
"744 632 OFFCURVE",
"778 715 CURVE",
"699 715 LINE",
"640 570 LINE SMOOTH",
"632 549 OFFCURVE",
"620 517 OFFCURVE",
"613 488 CURVE",
"609 488 LINE",
"600 522 OFFCURVE",
"585 562 OFFCURVE",
"577 581 CURVE SMOOTH",
"513 734 LINE",
"504 734 LINE",
"425 551 LINE SMOOTH",
"417 532 OFFCURVE",
"408 504 OFFCURVE",
"402 479 CURVE",
"398 479 LINE",
"393 504 OFFCURVE",
"383 532 OFFCURVE",
"375 551 CURVE SMOOTH",
"298 734 LINE",
"288 734 LINE",
"-22 0 LINE",
"62 0 LINE",
"127 155 LINE SMOOTH",
"135 175 OFFCURVE",
"143 203 OFFCURVE",
"150 225 CURVE",
"154 225 LINE",
"159 206 OFFCURVE",
"169 175 OFFCURVE",
"177 157 CURVE SMOOTH",
"258 -20 LINE"
);
},
{
closed = 1;
nodes = (
"247 169 OFFCURVE",
"238 195 OFFCURVE",
"229 216 CURVE SMOOTH",
"189 310 LINE",
"260 485 LINE SMOOTH",
"267 503 OFFCURVE",
"282 542 OFFCURVE",
"291 577 CURVE",
"295 577 LINE",
"303 542 OFFCURVE",
"319 504 OFFCURVE",
"327 485 CURVE SMOOTH",
"363 402 LINE",
"294 231 LINE SMOOTH",
"286 212 OFFCURVE",
"268 172 OFFCURVE",
"260 138 CURVE",
"255 138 LINE"
);
}
);
width = 753;
}
);
unicode = A945;
},
{
glyphname = uniA946;
lastChange = "2017-09-07 13:25:16 +0000";
layers = (
{
layerId = UUID0;
paths = (
{
closed = 1;
nodes = (
"62 0 LINE",
"172 264 LINE SMOOTH",
"180 283 OFFCURVE",
"193 323 OFFCURVE",
"203 358 CURVE",
"207 358 LINE",
"216 325 OFFCURVE",
"225 295 OFFCURVE",
"234 274 CURVE SMOOTH",
"270 188 LINE",
"348 188 LINE",
"242 440 LINE",
"260 485 LINE SMOOTH",
"268 504 OFFCURVE",
"283 544 OFFCURVE",
"291 577 CURVE",
"295 577 LINE",
"303 545 OFFCURVE",
"319 505 OFFCURVE",
"327 485 CURVE SMOOTH",
"389 330 LINE",
"401 330 LINE",
"564 714 LINE",
"485 714 LINE",
"424 570 LINE SMOOTH",
"415 549 OFFCURVE",
"405 517 OFFCURVE",
"397 488 CURVE",
"393 488 LINE",
"384 522 OFFCURVE",
"370 562 OFFCURVE",
"362 581 CURVE SMOOTH",
"298 734 LINE",
"288 734 LINE",
"-22 0 LINE"
);
}
);
width = 539;
}
);
unicode = A946;
},
{
glyphname = uniA947;
lastChange = "2017-09-07 13:25:16 +0000";
layers = (
{
layerId = UUID0;
paths = (
{
closed = 1;
nodes = (
"113 131 OFFCURVE",
"139 149 OFFCURVE",
"139 186 CURVE SMOOTH",
"139 224 OFFCURVE",
"113 241 OFFCURVE",
"81 241 CURVE SMOOTH",
"48 241 OFFCURVE",
"23 224 OFFCURVE",
"23 186 CURVE SMOOTH",
"23 149 OFFCURVE",
"48 131 OFFCURVE",
"81 131 CURVE SMOOTH"
);
}
);
width = 162;
}
);
unicode = A947;
},
{
glyphname = uniA948;
lastChange = "2017-09-07 13:25:16 +0000";
layers = (
{
layerId = UUID0;
paths = (
{
closed = 1;
nodes = (
"54 -180 OFFCURVE",
"80 -162 OFFCURVE",
"80 -125 CURVE SMOOTH",
"80 -87 OFFCURVE",
"54 -70 OFFCURVE",
"22 -70 CURVE SMOOTH",
"-11 -70 OFFCURVE",
"-36 -87 OFFCURVE",
"-36 -125 CURVE SMOOTH",
"-36 -162 OFFCURVE",
"-11 -180 OFFCURVE",
"22 -180 CURVE SMOOTH"
);
}
);
width = 0;
}
);
unicode = A948;
},
{
glyphname = uniA949;
lastChange = "2017-09-07 13:25:16 +0000";
layers = (
{
layerId = UUID0;
paths = (
{
closed = 1;
nodes = (
"111 323 LINE",
"111 530 LINE",
"33 530 LINE",
"33 323 LINE"
);
}
);
width = 0;
}
);
unicode = A949;
},
{
glyphname = uniA94A;
lastChange = "2017-09-07 13:25:16 +0000";
layers = (
{
layerId = UUID0;
paths = (
{
closed = 1;
nodes = (
"242 778 LINE",
"270 826 LINE SMOOTH",
"285 852 OFFCURVE",
"303 882 OFFCURVE",
"318 913 CURVE",
"325 886 OFFCURVE",
"341 845 OFFCURVE",
"350 824 CURVE SMOOTH",
"371 778 LINE",
"441 778 LINE",
"362 952 LINE",
"279 952 LINE",
"172 778 LINE"
);
}
);
width = 0;
}
);
unicode = A94A;
},
{
glyphname = uniA94B;
lastChange = "2017-09-07 13:25:16 +0000";
layers = (
{
layerId = UUID0;
paths = (
{
closed = 1;
nodes = (
"101 323 LINE",
"101 530 LINE",
"23 530 LINE",
"23 323 LINE"
);
},
{
closed = 1;
nodes = (
"143 -180 OFFCURVE",
"169 -163 OFFCURVE",
"169 -126 CURVE SMOOTH",
"169 -86 OFFCURVE",
"143 -70 OFFCURVE",
"111 -70 CURVE SMOOTH",
"78 -70 OFFCURVE",
"53 -86 OFFCURVE",
"53 -126 CURVE SMOOTH",
"53 -163 OFFCURVE",
"78 -180 OFFCURVE",
"111 -180 CURVE SMOOTH"
);
}
);
width = 0;
}
);
unicode = A94B;
},
{
glyphname = uniA94C;
lastChange = "2017-09-07 13:25:16 +0000";
layers = (
{
layerId = UUID0;
paths = (
{
closed = 1;
nodes = (
"126 -140 LINE",
"62 -140 OFFCURVE",
"37 -114 OFFCURVE",
"37 -45 CURVE",
"-40 -45 LINE",
"-40 -141 OFFCURVE",
"5 -203 OFFCURVE",
"126 -203 CURVE"
);
}
);
width = 0;
}
);
unicode = A94C;
},
{
glyphname = uniA94D;
lastChange = "2017-09-07 13:25:16 +0000";
layers = (
{
layerId = UUID0;
paths = (
{
closed = 1;
nodes = (
"147 -203 LINE",
"147 -44 LINE",
"73 -44 LINE",
"73 -203 LINE"
);
},
{
closed = 1;
nodes = (
"-2 -203 LINE",
"-2 -44 LINE",
"-76 -44 LINE",
"-76 -203 LINE"
);
}
);
width = 0;
}
);
unicode = A94D;
},
{
glyphname = uniA94E;
lastChange = "2017-09-07 13:25:16 +0000";
layers = (
{
layerId = UUID0;
paths = (
{
closed = 1;
nodes = (
"302 -203 LINE",
"302 -44 LINE",
"228 -44 LINE",
"228 -203 LINE"
);
},
{
closed = 1;
nodes = (
"153 -203 LINE",
"153 -44 LINE",
"79 -44 LINE",
"79 -203 LINE"
);
}
);
width = 0;
}
);
unicode = A94E;
},
{
glyphname = uniA94F;
lastChange = "2017-09-07 13:25:16 +0000";
layers = (
{
layerId = UUID0;
paths = (
{
closed = 1;
nodes = (
"453 941 LINE",
"385 970 LINE",
"282 787 LINE",
"350 758 LINE"
);
}
);
width = 0;
}
);
unicode = A94F;
},
{
glyphname = uniA950;
lastChange = "2017-09-07 13:25:16 +0000";
layers = (
{
layerId = UUID0;
paths = (
{
closed = 1;
nodes = (
"533 941 LINE",
"465 970 LINE",
"362 787 LINE",
"430 758 LINE"
);
},
{
closed = 1;
nodes = (
"370 941 LINE",
"302 970 LINE",
"199 787 LINE",
"267 758 LINE"
);
}
);
width = 0;
}
);
unicode = A950;
},
{
glyphname = uniA951;
lastChange = "2017-09-07 13:25:16 +0000";
layers = (
{
layerId = UUID0;
paths = (
{
closed = 1;
nodes = (
"344 778 LINE",
"451 952 LINE",
"381 952 LINE",
"353 904 LINE SMOOTH",
"338 878 OFFCURVE",
"320 848 OFFCURVE",
"305 817 CURVE",
"298 844 OFFCURVE",
"282 885 OFFCURVE",
"273 906 CURVE SMOOTH",
"252 952 LINE",
"182 952 LINE",
"261 778 LINE"
);
}
);
width = 0;
}
);
unicode = A951;
},
{
glyphname = uniA952;
lastChange = "2017-09-07 13:25:16 +0000";
layers = (
{
layerId = UUID0;
paths = (
{
closed = 1;
nodes = (
"106 327 OFFCURVE",
"131 344 OFFCURVE",
"131 379 CURVE SMOOTH",
"131 415 OFFCURVE",
"106 430 OFFCURVE",
"76 430 CURVE SMOOTH",
"45 430 OFFCURVE",
"21 415 OFFCURVE",
"21 379 CURVE SMOOTH",
"21 344 OFFCURVE",
"45 327 OFFCURVE",
"76 327 CURVE SMOOTH"
);
},
{
closed = 1;
nodes = (
"106 10 OFFCURVE",
"131 26 OFFCURVE",
"131 61 CURVE SMOOTH",
"131 97 OFFCURVE",
"106 113 OFFCURVE",
"76 113 CURVE SMOOTH",
"45 113 OFFCURVE",
"21 97 OFFCURVE",
"21 61 CURVE SMOOTH",
"21 26 OFFCURVE",
"45 10 OFFCURVE",
"76 10 CURVE SMOOTH"
);
}
);
width = 152;
}
);
unicode = A952;
},
{
glyphname = uniA953;
lastChange = "2017-09-07 13:25:16 +0000";
layers = (
{
layerId = UUID0;
paths = (
{
closed = 1;
nodes = (
"425 771 OFFCURVE",
"472 810 OFFCURVE",
"472 873 CURVE SMOOTH",
"472 937 OFFCURVE",
"423 976 OFFCURVE",
"362 976 CURVE SMOOTH",
"298 976 OFFCURVE",
"252 937 OFFCURVE",
"252 873 CURVE SMOOTH",
"252 810 OFFCURVE",
"298 771 OFFCURVE",
"362 771 CURVE SMOOTH"
);
},
{
closed = 1;
nodes = (
"322 815 OFFCURVE",
"300 839 OFFCURVE",
"300 873 CURVE SMOOTH",
"300 910 OFFCURVE",
"324 932 OFFCURVE",
"362 932 CURVE SMOOTH",
"401 932 OFFCURVE",
"424 910 OFFCURVE",
"424 873 CURVE SMOOTH",
"424 839 OFFCURVE",
"400 815 OFFCURVE",
"362 815 CURVE SMOOTH"
);
}
);
width = 0;
}
);
unicode = A953;
},
{
glyphname = uniA95F;
lastChange = "2017-09-07 13:25:16 +0000";
layers = (
{
layerId = UUID0;
paths = (
{
closed = 1;
nodes = (
"497 80 OFFCURVE",
"514 122 OFFCURVE",
"514 163 CURVE SMOOTH",
"514 191 OFFCURVE",
"505 218 OFFCURVE",
"489 246 CURVE",
"504 268 OFFCURVE",
"516 295 OFFCURVE",
"522 322 CURVE",
"567 308 OFFCURVE",
"597 272 OFFCURVE",
"597 218 CURVE",
"652 218 LINE",
"648 308 OFFCURVE",
"597 365 OFFCURVE",
"523 381 CURVE",
"518 409 OFFCURVE",
"509 436 OFFCURVE",
"496 457 CURVE",
"512 467 OFFCURVE",
"528 470 OFFCURVE",
"547 470 CURVE SMOOTH",
"572 470 OFFCURVE",
"599 458 OFFCURVE",
"623 436 CURVE",
"662 477 LINE",
"623 510 OFFCURVE",
"581 527 OFFCURVE",
"541 527 CURVE SMOOTH",
"511 527 OFFCURVE",
"483 518 OFFCURVE",
"454 500 CURVE",
"434 515 OFFCURVE",
"407 528 OFFCURVE",
"379 532 CURVE",
"396 577 OFFCURVE",
"431 610 OFFCURVE",
"485 610 CURVE",
"485 664 LINE",
"395 660 OFFCURVE",
"338 609 OFFCURVE",
"320 534 CURVE",
"293 530 OFFCURVE",
"268 521 OFFCURVE",
"246 507 CURVE",
"236 524 OFFCURVE",
"232 541 OFFCURVE",
"232 559 CURVE SMOOTH",
"232 584 OFFCURVE",
"245 612 OFFCURVE",
"266 635 CURVE",
"226 675 LINE",
"192 636 OFFCURVE",
"174 593 OFFCURVE",
"174 552 CURVE SMOOTH",
"174 523 OFFCURVE",
"184 493 OFFCURVE",
"201 466 CURVE",
"186 446 OFFCURVE",
"174 421 OFFCURVE",
"170 393 CURVE",
"124 407 OFFCURVE",
"93 443 OFFCURVE",
"93 498 CURVE",
"38 498 LINE",
"42 406 OFFCURVE",
"93 351 OFFCURVE",
"168 333 CURVE",
"171 306 OFFCURVE",
"180 280 OFFCURVE",
"193 257 CURVE",
"176 250 OFFCURVE",
"159 246 OFFCURVE",
"144 246 CURVE SMOOTH",
"118 246 OFFCURVE",
"91 257 OFFCURVE",
"67 279 CURVE",
"27 239 LINE",
"66 206 OFFCURVE",
"109 189 OFFCURVE",
"150 189 CURVE SMOOTH",
"179 189 OFFCURVE",
"208 196 OFFCURVE",
"236 215 CURVE",
"257 198 OFFCURVE",
"283 188 OFFCURVE",
"309 182 CURVE",
"296 138 OFFCURVE",
"259 106 OFFCURVE",
"205 106 CURVE",
"205 51 LINE",
"295 56 OFFCURVE",
"353 107 OFFCURVE",
"369 182 CURVE",
"398 184 OFFCURVE",
"422 193 OFFCURVE",
"445 205 CURVE",
"453 189 OFFCURVE",
"457 173 OFFCURVE",
"457 156 CURVE SMOOTH",
"457 131 OFFCURVE",
"445 105 OFFCURVE",
"423 81 CURVE",
"463 41 LINE"
);
},
{
closed = 1;
nodes = (
"281 234 OFFCURVE",
"232 283 OFFCURVE",
"232 358 CURVE SMOOTH",
"232 429 OFFCURVE",
"281 481 OFFCURVE",
"344 481 CURVE SMOOTH",
"409 481 OFFCURVE",
"458 432 OFFCURVE",
"458 358 CURVE SMOOTH",
"458 281 OFFCURVE",
"406 234 OFFCURVE",
"345 234 CURVE SMOOTH"
);
}
);
width = 668;
}
);
unicode = A95F;
},
{
glyphname = uni25CC;
lastChange = "2017-09-07 13:25:16 +0000";
layers = (
{
layerId = UUID0;
paths = (
{
closed = 1;
nodes = (
"480 466 OFFCURVE",
"472 475 OFFCURVE",
"455 475 CURVE SMOOTH",
"437 475 OFFCURVE",
"428 466 OFFCURVE",
"428 448 CURVE SMOOTH",
"428 431 OFFCURVE",
"437 422 OFFCURVE",
"455 422 CURVE SMOOTH",
"472 422 OFFCURVE",
"480 431 OFFCURVE",
"480 448 CURVE SMOOTH"
);
},
{
closed = 1;
nodes = (
"408 514 OFFCURVE",
"400 523 OFFCURVE",
"383 523 CURVE SMOOTH",
"364 523 OFFCURVE",
"355 514 OFFCURVE",
"355 496 CURVE SMOOTH",
"355 479 OFFCURVE",
"364 470 OFFCURVE",
"383 470 CURVE SMOOTH",
"400 470 OFFCURVE",
"408 479 OFFCURVE",
"408 496 CURVE SMOOTH"
);
},
{
closed = 1;
nodes = (
"529 393 OFFCURVE",
"520 402 OFFCURVE",
"503 402 CURVE SMOOTH",
"485 402 OFFCURVE",
"476 393 OFFCURVE",
"476 376 CURVE SMOOTH",
"476 358 OFFCURVE",
"485 349 OFFCURVE",
"502 349 CURVE SMOOTH",
"520 349 OFFCURVE",
"529 358 OFFCURVE",
"529 376 CURVE SMOOTH"
);
},
{
closed = 1;
nodes = (
"546 308 OFFCURVE",
"538 317 OFFCURVE",
"521 317 CURVE SMOOTH",
"503 317 OFFCURVE",
"494 308 OFFCURVE",
"494 291 CURVE SMOOTH",
"494 274 OFFCURVE",
"503 265 OFFCURVE",
"521 265 CURVE SMOOTH",
"538 265 OFFCURVE",
"546 274 OFFCURVE",
"546 291 CURVE SMOOTH"
);
},
{
closed = 1;
nodes = (
"323 531 OFFCURVE",
"314 540 OFFCURVE",
"297 540 CURVE SMOOTH",
"280 540 OFFCURVE",
"271 531 OFFCURVE",
"271 514 CURVE SMOOTH",
"271 496 OFFCURVE",
"280 487 OFFCURVE",
"297 487 CURVE SMOOTH",
"314 487 OFFCURVE",
"323 496 OFFCURVE",
"323 514 CURVE SMOOTH"
);
},
{
closed = 1;
nodes = (
"239 514 OFFCURVE",
"230 523 OFFCURVE",
"212 523 CURVE SMOOTH",
"195 523 OFFCURVE",
"186 514 OFFCURVE",
"186 496 CURVE SMOOTH",
"186 479 OFFCURVE",
"195 470 OFFCURVE",
"212 470 CURVE SMOOTH",
"230 470 OFFCURVE",
"239 479 OFFCURVE",
"239 496 CURVE SMOOTH"
);
},
{
closed = 1;
nodes = (
"529 224 OFFCURVE",
"520 233 OFFCURVE",
"502 233 CURVE SMOOTH",
"485 233 OFFCURVE",
"476 224 OFFCURVE",
"476 206 CURVE SMOOTH",
"476 189 OFFCURVE",
"485 180 OFFCURVE",
"502 180 CURVE SMOOTH",
"520 180 OFFCURVE",
"529 189 OFFCURVE",
"529 206 CURVE SMOOTH"
);
},
{
closed = 1;
nodes = (
"167 466 OFFCURVE",
"158 475 OFFCURVE",
"140 475 CURVE SMOOTH",
"123 475 OFFCURVE",
"114 466 OFFCURVE",
"114 447 CURVE SMOOTH",
"114 430 OFFCURVE",
"123 422 OFFCURVE",
"140 422 CURVE SMOOTH",
"158 422 OFFCURVE",
"167 431 OFFCURVE",
"167 448 CURVE SMOOTH"
);
},
{
closed = 1;
nodes = (
"480 151 OFFCURVE",
"472 160 OFFCURVE",
"455 160 CURVE SMOOTH",
"437 160 OFFCURVE",
"428 151 OFFCURVE",
"428 133 CURVE SMOOTH",
"428 116 OFFCURVE",
"437 107 OFFCURVE",
"455 107 CURVE SMOOTH",
"472 107 OFFCURVE",
"480 116 OFFCURVE",
"480 133 CURVE SMOOTH"
);
},
{
closed = 1;
nodes = (
"408 103 OFFCURVE",
"400 112 OFFCURVE",
"383 112 CURVE SMOOTH",
"364 112 OFFCURVE",
"355 103 OFFCURVE",
"355 85 CURVE SMOOTH",
"355 68 OFFCURVE",
"364 60 OFFCURVE",
"383 60 CURVE SMOOTH",
"400 60 OFFCURVE",
"408 68 OFFCURVE",
"408 85 CURVE SMOOTH"
);
},
{
closed = 1;
nodes = (
"118 393 OFFCURVE",
"109 402 OFFCURVE",
"92 402 CURVE SMOOTH",
"74 402 OFFCURVE",
"65 393 OFFCURVE",
"65 376 CURVE SMOOTH",
"65 358 OFFCURVE",
"74 349 OFFCURVE",
"93 349 CURVE SMOOTH",
"110 349 OFFCURVE",
"118 358 OFFCURVE",
"118 376 CURVE SMOOTH"
);
},
{
closed = 1;
nodes = (
"101 308 OFFCURVE",
"92 317 OFFCURVE",
"75 317 CURVE SMOOTH",
"57 317 OFFCURVE",
"48 308 OFFCURVE",
"48 291 CURVE SMOOTH",
"48 274 OFFCURVE",
"57 265 OFFCURVE",
"75 265 CURVE SMOOTH",
"92 265 OFFCURVE",
"101 274 OFFCURVE",
"101 291 CURVE SMOOTH"
);
},
{
closed = 1;
nodes = (
"323 86 OFFCURVE",
"314 95 OFFCURVE",
"297 95 CURVE SMOOTH",
"280 95 OFFCURVE",
"271 86 OFFCURVE",
"271 69 CURVE SMOOTH",
"271 51 OFFCURVE",
"280 42 OFFCURVE",
"297 42 CURVE SMOOTH",
"314 42 OFFCURVE",
"323 51 OFFCURVE",
"323 69 CURVE SMOOTH"
);
},
{
closed = 1;
nodes = (
"118 224 OFFCURVE",
"109 233 OFFCURVE",
"92 233 CURVE SMOOTH",
"74 233 OFFCURVE",
"65 224 OFFCURVE",
"65 206 CURVE SMOOTH",
"65 189 OFFCURVE",
"74 180 OFFCURVE",
"92 180 CURVE SMOOTH",
"109 180 OFFCURVE",
"118 189 OFFCURVE",
"118 206 CURVE SMOOTH"
);
},
{
closed = 1;
nodes = (
"239 104 OFFCURVE",
"230 112 OFFCURVE",
"212 112 CURVE SMOOTH",
"195 112 OFFCURVE",
"186 103 OFFCURVE",
"186 85 CURVE SMOOTH",
"186 68 OFFCURVE",
"195 60 OFFCURVE",
"212 60 CURVE SMOOTH",
"230 60 OFFCURVE",
"239 69 OFFCURVE",
"239 87 CURVE SMOOTH"
);
},
{
closed = 1;
nodes = (
"167 151 OFFCURVE",
"158 160 OFFCURVE",
"140 160 CURVE SMOOTH",
"123 160 OFFCURVE",
"114 151 OFFCURVE",
"114 133 CURVE SMOOTH",
"114 116 OFFCURVE",
"123 107 OFFCURVE",
"140 107 CURVE SMOOTH",
"158 107 OFFCURVE",
"167 116 OFFCURVE",
"167 133 CURVE SMOOTH"
);
}
